<?xml version="1.0" standalone="no"?>
<!DOCTYPE svg PUBLIC "-//W3C//DTD SVG 20010904//EN"
 "http://www.w3.org/TR/2001/REC-SVG-20010904/DTD/svg10.dtd">
<svg version="1.0" xmlns="http://www.w3.org/2000/svg"
 width="500.000000pt" height="500.000000pt" viewBox="0 0 500.000000 500.000000"
 preserveAspectRatio="xMidYMid meet">

<g transform="translate(0.000000,500.000000) scale(0.100000,-0.100000)"
fill="#000000" stroke="none">
<path d="M2137 4139 c-140 -33 -263 -152 -307 -298 -20 -65 -20 -87 -18 -1311
3 -1409 -4 -1294 86 -1412 53 -70 120 -120 195 -145 47 -16 120 -18 772 -21
525 -2 735 0 775 8 126 27 221 104 283 229 l32 66 0 1285 c0 1452 7 1321 -81
1446 -50 71 -116 117 -205 145 -57 18 -101 19 -777 18 -395 -1 -734 -5 -755
-10z m1556 -91 c86 -41 152 -113 177 -196 20 -66 20 -85 18 -1327 l-3 -1260
-28 -58 c-20 -39 -45 -71 -80 -99 -105 -83 -40 -78 -874 -78 -735 0 -743 0
-800 21 -105 40 -187 138 -212 257 -8 38 -11 403 -11 1256 0 1337 -4 1250 69
1363 44 68 110 119 180 139 36 10 206 12 776 11 l730 -2 58 -27z"/>
<path d="M2862 3948 c-16 -16 -16 -120 0 -136 18 -18 46 -14 58 7 5 11 10 42
10 70 0 39 -4 53 -19 61 -25 13 -34 13 -49 -2z"/>
<path d="M3573 3910 c-41 -25 -67 -74 -59 -112 15 -77 85 -121 149 -95 94 40
104 167 16 213 -38 19 -68 18 -106 -6z m91 -72 c21 -29 20 -41 -3 -69 -16 -20
-22 -22 -45 -11 -30 13 -42 51 -26 81 14 28 55 27 74 -1z"/>
<path d="M2340 3741 c-8 -16 -2 -29 36 -76 38 -46 51 -56 72 -53 41 5 38 32
-10 92 -46 59 -79 71 -98 37z"/>
<path d="M3361 3708 c-53 -55 -61 -77 -37 -97 20 -17 45 -2 90 51 38 44 44 66
24 86 -18 18 -22 16 -77 -40z"/>
<path d="M2790 3726 c-164 -34 -287 -131 -363 -285 -31 -63 -32 -70 -32 -191
0 -125 0 -127 37 -200 21 -44 64 -106 102 -148 36 -40 69 -85 73 -100 8 -28 9
-119 3 -184 -2 -25 2 -44 13 -56 15 -16 15 -20 2 -39 -12 -17 -14 -36 -9 -78
8 -66 38 -109 83 -118 20 -4 35 -17 46 -36 55 -107 235 -109 285 -4 12 24 25
34 57 42 25 7 49 21 57 34 21 34 29 138 11 161 -12 16 -11 22 7 46 18 24 19
33 9 61 -12 35 -14 100 -5 147 3 16 39 72 80 123 127 160 166 271 144 412 -6
40 -23 99 -39 132 -32 70 -121 170 -189 213 -103 66 -251 93 -372 68z m268
-96 c154 -68 262 -223 262 -374 0 -109 -36 -192 -125 -296 -67 -78 -100 -138
-109 -203 l-7 -48 -47 3 -47 3 -3 178 c-2 165 -1 177 15 177 27 0 94 59 109
96 22 52 17 90 -15 126 -52 58 -133 40 -188 -41 l-22 -32 -14 28 c-45 85 -128
104 -186 42 -28 -30 -28 -102 -1 -147 21 -34 74 -72 102 -72 21 0 24 -45 20
-232 l-3 -128 -48 0 -49 0 -7 48 c-10 71 -25 99 -101 192 -88 108 -99 125
-118 190 -65 219 89 469 313 511 74 13 216 2 269 -21z m-8 -414 c0 -30 -43
-76 -71 -76 -20 0 -21 4 -16 42 7 52 39 83 68 68 10 -6 19 -21 19 -34z m-256
18 c9 -8 16 -23 16 -32 0 -9 3 -27 6 -39 9 -32 -16 -30 -55 3 -29 24 -40 61
-24 77 11 12 41 7 57 -9z m106 -79 c0 -8 -4 -15 -10 -15 -5 0 -10 7 -10 15 0
8 5 15 10 15 6 0 10 -7 10 -15z m10 -265 c0 -173 -1 -180 -20 -180 -19 0 -20
7 -20 180 0 173 1 180 20 180 19 0 20 -7 20 -180z m190 -270 c0 -5 -8 -10 -17
-10 -10 0 -91 -3 -181 -6 -164 -6 -212 -2 -212 16 0 6 78 10 205 10 130 0 205
-4 205 -10z m-13 -103 c29 -22 -9 -27 -198 -27 -169 0 -199 2 -199 15 0 12 28
15 173 17 94 2 181 3 192 4 11 0 26 -4 32 -9z m-7 -112 c0 -13 -24 -15 -182
-13 -134 2 -182 6 -186 16 -3 9 38 12 182 12 160 0 186 -2 186 -15z m-120 -94
c0 -24 -101 -29 -120 -6 -11 13 -4 15 54 15 36 0 66 -4 66 -9z"/>
<path d="M2673 3530 c-34 -27 -65 -60 -69 -72 -4 -13 -19 -38 -35 -55 -55 -63
-62 -148 -13 -148 14 0 24 15 39 63 28 85 110 171 188 196 24 8 32 33 17 51
-23 28 -63 17 -127 -35z"/>
<path d="M2126 3245 c-19 -19 -11 -43 18 -51 12 -3 48 -4 80 -2 66 3 91 23 67
52 -19 22 -143 23 -165 1z"/>
<path d="M3495 3239 c-13 -39 15 -52 88 -45 67 8 94 24 83 51 -4 12 -23 15
-85 15 -72 0 -80 -2 -86 -21z"/>
<path d="M3322 2888 c-24 -24 -12 -54 42 -107 59 -58 86 -63 86 -14 0 19 -15
45 -46 81 -47 54 -61 61 -82 40z"/>
<path d="M2381 2836 c-54 -54 -54 -55 -37 -80 9 -14 19 -26 21 -26 3 0 33 27
67 61 50 50 60 64 51 77 -20 33 -47 24 -102 -32z"/>
<path d="M2333 2033 c-15 -6 -17 -39 -3 -48 15 -9 1102 -13 1128 -4 25 10 30
44 6 53 -19 7 -1113 7 -1131 -1z"/>
<path d="M2330 1875 c-20 -24 -8 -49 30 -57 38 -9 668 -9 943 0 152 5 169 7
178 24 26 48 27 48 -576 48 -480 0 -564 -2 -575 -15z"/>
<path d="M2940 1700 l-655 -5 -45 -25 c-90 -51 -149 -167 -137 -271 10 -83 74
-178 143 -214 22 -10 47 -26 57 -34 13 -11 22 -12 42 -3 16 8 227 13 660 18
498 6 638 10 646 20 20 24 6 58 -28 68 -18 6 -34 17 -36 25 -3 10 -5 7 -6 -6
l-1 -23 -272 -2 c-661 -4 -968 -2 -968 6 0 18 53 105 62 100 5 -3 20 -24 34
-45 19 -30 31 -39 47 -37 21 3 22 8 25 126 l3 122 -114 0 -113 0 4 -131 c4
-128 4 -131 -15 -120 -41 22 -80 78 -87 126 -10 63 9 136 42 168 60 57 56 57
768 57 643 0 653 0 664 20 17 33 -16 75 -53 68 -7 -2 -307 -5 -667 -8z"/>
<path d="M2564 1545 c-4 -8 -4 -22 0 -30 5 -13 27 -15 143 -13 l138 3 3 28 3
27 -141 0 c-116 0 -142 -3 -146 -15z"/>
<path d="M2957 1553 c-4 -3 -7 -17 -7 -30 l0 -23 293 0 c304 0 317 2 317 42 0
17 -18 18 -298 18 -164 0 -302 -3 -305 -7z"/>
<path d="M2600 1415 c0 -14 6 -28 14 -31 8 -3 56 -2 108 3 86 7 93 10 96 31 3
22 2 22 -107 22 l-111 0 0 -25z"/>
<path d="M3030 1415 c0 -26 0 -26 73 -23 64 3 72 5 72 23 0 18 -8 20 -72 23
-73 3 -73 3 -73 -23z"/>
<path d="M3294 1425 c-11 -27 4 -48 29 -41 12 3 68 6 125 6 101 0 103 0 100
23 -3 21 -7 22 -126 25 -102 2 -123 0 -128 -13z"/>
<path d="M2770 1330 l0 -31 138 3 137 3 0 25 0 25 -137 3 -138 3 0 -31z"/>
<path d="M3338 1343 c-22 -6 -23 -29 -2 -37 20 -8 244 -8 244 0 0 3 -5 14 -10
25 -10 17 -21 19 -113 18 -56 -1 -110 -3 -119 -6z"/>
<path d="M1680 4101 c-80 -26 -110 -44 -161 -98 -55 -58 -70 -81 -97 -155
l-21 -57 -1 -1289 c-1 -1274 -1 -1290 19 -1347 12 -32 33 -76 47 -97 35 -51
113 -105 172 -120 30 -8 63 -27 90 -53 24 -22 55 -46 70 -54 l26 -14 -24 -9
c-14 -6 -60 -7 -103 -4 -71 6 -78 5 -75 -11 2 -9 18 -26 37 -37 30 -17 62 -21
260 -29 248 -9 1095 -10 1124 -1 10 3 25 0 33 -7 10 -8 18 -9 25 -2 6 6 32 6
72 0 58 -8 342 -3 396 8 14 2 27 9 30 14 3 5 29 11 56 15 122 13 169 29 185
64 9 22 9 24 -7 17 -89 -34 -116 -35 -940 -35 -478 0 -834 5 -864 10 -28 5
-73 21 -100 35 -191 95 -269 245 -269 513 0 69 -3 123 -6 120 -3 -4 -7 -53
-10 -110 -2 -56 -6 -117 -9 -135 -3 -17 -1 -52 5 -78 6 -26 11 -63 12 -82 1
-19 5 -36 10 -39 10 -7 1 -24 -13 -24 -6 0 -7 5 -3 12 4 7 3 8 -4 4 -18 -11
-57 15 -101 69 -76 92 -71 -9 -71 1412 0 1225 1 1275 19 1323 36 95 129 189
202 205 25 6 79 59 79 78 0 11 -32 7 -90 -12z"/>
<path d="M1652 3210 c0 -14 2 -19 5 -12 2 6 2 18 0 25 -3 6 -5 1 -5 -13z"/>
<path d="M1653 2460 c0 -25 2 -35 4 -22 2 12 2 32 0 45 -2 12 -4 2 -4 -23z"/>
<path d="M1644 2358 c-13 -29 -7 -58 12 -58 15 0 19 46 6 68 -6 9 -11 6 -18
-10z"/>
<path d="M1652 2000 c0 -19 2 -27 5 -17 2 9 2 25 0 35 -3 9 -5 1 -5 -18z"/>
<path d="M1649 1923 c-2 -21 -1 -58 2 -83 5 -36 6 -28 7 38 2 85 -3 110 -9 45z"/>
</g>
</svg>
